<svg height="512pt" fill="#fff" viewBox="-41 0 512 512" width="512pt" xmlns="http://www.w3.org/2000/svg"><path d="m367.265625 63.011719c-40.632813-40.632813-94.660156-63.011719-152.125-63.011719-57.46875 0-111.492187 22.378906-152.128906 63.011719-40.632813 40.636719-63.011719 94.664062-63.011719 152.128906 0 50.25 17.703125 99.152344 49.847656 137.699219v.003906c8.179688 9.804688 17.28125 18.933594 27.0625 27.144531l127.609375 127.613281c2.933594 2.933594 6.777344 4.398438 10.621094 4.398438s7.6875-1.464844 10.617187-4.398438l127.613282-127.613281c9.78125-8.210937 18.882812-17.339843 27.058594-27.148437 32.148437-38.546875 49.851562-87.449219 49.851562-137.699219 0-57.464844-22.378906-111.492187-63.015625-152.128906zm-34.660156 295.265625-117.464844 117.464844-117.464844-117.464844c-.320312-.316406-.652343-.625-1-.914063-8.597656-7.167969-16.589843-15.160156-23.761719-23.757812-27.648437-33.15625-42.878906-75.230469-42.878906-118.464844 0-102.066406 83.039063-185.105469 185.105469-185.105469s185.105469 83.039063 185.105469 185.105469c0 43.234375-15.230469 85.304687-42.882813 118.464844-7.167969 8.597656-15.164062 16.589843-23.757812 23.757812-.347657.289063-.679688.597657-1 .914063zm0 0"/><path d="m262.15625 165.875h-53.339844c-8.292968 0-15.019531 6.722656-15.019531 15.015625v92.988281c0 8.296875 6.726563 15.019532 15.019531 15.019532 8.292969 0 15.019532-6.722657 15.019532-15.019532v-31.476562h38.320312c21.101562 0 38.265625-17.164063 38.265625-38.265625 0-21.097657-17.164063-38.261719-38.265625-38.261719zm0 46.492188h-38.320312v-16.457032h38.320312c4.539062 0 8.230469 3.691406 8.230469 8.230469 0 4.535156-3.691407 8.226563-8.230469 8.226563zm0 0"/><path d="m164.386719 165.875c-8.292969 0-15.019531 6.722656-15.019531 15.015625v92.988281c0 8.296875 6.726562 15.019532 15.019531 15.019532s15.019531-6.722657 15.019531-15.019532v-92.988281c0-8.292969-6.726562-15.015625-15.019531-15.015625zm0 0"/></svg>